<?xml version="1.0" encoding="UTF-8"?>
<!-- Generator: Adobe Illustrator 16.0.0, SVG Export Plug-In . SVG Version: 6.00 Build 0)  -->
<!DOCTYPE svg PUBLIC "-//W3C//DTD SVG 1.1//EN" "http://www.w3.org/Graphics/SVG/1.1/DTD/svg11.dtd">
<svg version="1.1" id="Layer_1" xmlns="http://www.w3.org/2000/svg" xmlns:xlink="http://www.w3.org/1999/xlink" x="0px" y="0px" width="14.618px" height="16.937px" viewBox="0 0 14.618 16.937" enable-background="new 0 0 14.618 16.937" xml:space="preserve">
<path fill="#333333" d="M11.724,5.454l2.418-3.701c0,0,0.805-1.059,0.32-1.59C13.98-0.368,12.92,0.567,12.92,0.567L9.622,4.026  l-7.907-0.46L0.287,5.107l6.824,2.209l-3.318,5.167c-0.089,0.114-0.171,0.227-0.241,0.336l-2.536-0.697L0,13.408l2.728,0.88  l0.121,0.097l0.4,0.313l0.349,0.276l1.335,1.962l0.941-1.193l-1.535-2.315c0.059-0.05,0.114-0.106,0.164-0.17l4.559-4.54l0.076,0.06  l4.166,6.301l1.02-1.563l-2.578-8.042L11.724,5.454z"/>
</svg>