<?xml version="1.0" encoding="UTF-8"?>
<!-- Generator: Adobe Illustrator 17.1.0, SVG Export Plug-In . SVG Version: 6.00 Build 0)  -->
<!DOCTYPE svg PUBLIC "-//W3C//DTD SVG 1.1//EN" "http://www.w3.org/Graphics/SVG/1.1/DTD/svg11.dtd">
<svg version="1.1" id="Capa_1" xmlns="http://www.w3.org/2000/svg" xmlns:xlink="http://www.w3.org/1999/xlink" x="0px" y="0px" viewBox="29.3 0 33.5 27.8" enable-background="new 29.3 0 33.5 27.8" xml:space="preserve">
<g>
	<path fill="#333333" d="M58.5,19.8h-2.8l-3.5-4.4h2.5l-3.5-4H49L47,8.9h2l-2.8-3.2h-1.8l-1-1.3h1.7l-1.8-2.1h-1.5l-0.6-0.7h1.5   L41.3,0H40h-1.2h-5.2h-2.2h-2v1.5h2.1l0,0.7h-2.1v2.1h2.1l0,1.3h-2.2v3.2h2.3l0.1,2.4h-2.4v4h2.5l0.1,4.4h-2.6v5h2.8l0.1,3h6.5   l-0.6-3h15.6l1.8,3h6.5l-2.4-3h3.1L58.5,19.8z M33.8,1.5h5.8l0.4,0.7H34L33.8,1.5z M34.4,4.3h7l0.8,1.3h-7.5L34.4,4.3z M35.2,8.9   h8.9l1.5,2.4h-9.9L35.2,8.9z M37.2,19.8l-0.8-4.4H48l2.7,4.4H37.2z"/>
</g>
</svg>