<?xml version="1.0" encoding="UTF-8"?>
<!-- Generator: Adobe Illustrator 16.0.0, SVG Export Plug-In . SVG Version: 6.00 Build 0)  -->
<!DOCTYPE svg PUBLIC "-//W3C//DTD SVG 1.1//EN" "http://www.w3.org/Graphics/SVG/1.1/DTD/svg11.dtd">
<svg version="1.1" id="Capa_1" xmlns="http://www.w3.org/2000/svg" xmlns:xlink="http://www.w3.org/1999/xlink" x="0px" y="0px" width="56px" height="49.25px" viewBox="0 0 56 49.25" enable-background="new 0 0 56 49.25" xml:space="preserve">
<path fill="#333333" d="M52.5,45.417V9l-15-9v45.417h-2.75V24.572c0-2.209-1.791-4-4-4h-9.5V43.25h-1V12.601  c-0.678-1.246-1.982-2.101-3.5-2.101H8c-2.209,0-4,1.791-4,4v30.917H0v3.833h56v-3.833H52.5z M46,10.083h4.5v4.5H46V10.083z M46,18  h4.5v4.5H46V18z M46,26.083h4.5v4.5H46V26.083z M46,34h4.5v4.5H46V34z M39.5,10.083H44v4.5h-4.5V10.083z M39.5,18H44v4.5h-4.5V18z   M39.5,26.083H44v4.5h-4.5V26.083z M39.5,34H44v4.5h-4.5V34z M13.333,14.989h4v4h-4V14.989z M13.333,22.156h4v4h-4V22.156z   M13.333,29.417h4v4h-4V29.417z M13.333,36.583h4v4h-4V36.583z M6.666,14.989h4v4h-4V14.989z M6.666,22.156h4v4h-4V22.156z   M6.666,29.417h4v4h-4V29.417z M6.666,36.583h4v4h-4V36.583z"/>
</svg>